<svg width="30" height="30" viewBox="0 0 30 30" fill="none" xmlns="http://www.w3.org/2000/svg">
<rect width="30" height="30" fill="none"/>
<path d="M24 3C22.343 3 21 4.343 21 6C21 6.52453 21.1463 7.01049 21.3828 7.43945L15.5508 14H8.81641C8.40332 12.8372 7.30463 12 6 12C4.343 12 3 13.343 3 15C3 16.657 4.343 18 6 18C7.30463 18 8.40332 17.1628 8.81641 16H15.5508L21.3828 22.5605C21.1463 22.9895 21 23.4755 21 24C21 25.657 22.343 27 24 27C25.657 27 27 25.657 27 24C27 22.343 25.657 21 24 21C23.6001 21 23.22 21.0826 22.8711 21.2246L17.3379 15L22.8711 8.77539C23.22 8.91738 23.6001 9 24 9C25.657 9 27 7.657 27 6C27 4.343 25.657 3 24 3Z" fill="white"/>
</svg>
